<svg width="512" height="512" viewBox="0 0 512 512" fill="none" xmlns="http://www.w3.org/2000/svg">
<rect width="512" height="512" fill="#4A3CEF"/>
<path fill-rule="evenodd" clip-rule="evenodd" d="M108 185.795C130.778 189.703 152.342 195.531 172.753 206.699C177.537 209.317 182.017 212.115 186.139 215.093C196.2 221.793 203.899 231.06 208.934 240.755C211.88 246.429 213.999 252.42 215.099 258.295L215.11 258.298C215.138 258.467 215.165 258.637 215.192 258.806C215.713 261.742 215.977 264.645 215.96 267.462C216.136 276.822 214.178 287.187 208.573 298.89C198.89 318.223 183.964 322.431 171.225 319.95C156.908 317.16 146.197 306.382 144.583 295.311C142.584 281.592 146.609 268.66 156.353 261.297C164.041 255.487 178.095 251.022 201.977 255.3C201.066 252.356 199.83 249.327 198.257 246.299C193.681 237.486 186.536 229.25 177.332 223.757C161.688 224.792 148.618 229.444 138.22 237.302C117.337 253.083 111.723 278.391 114.822 299.65C118.651 325.915 141.352 344.771 165.474 349.47C191.154 354.473 219.665 344.044 235.537 312.214L235.586 312.115L235.634 312.015C241.845 299.087 244.897 286.963 245.772 275.673C247.177 252.559 238.818 230.391 231.524 217.964L231.528 217.962C220.658 199.575 204.77 183.157 188.243 172.809C162.651 156.785 140.846 149.069 118.277 143L108 185.795ZM253.853 240.858C256.374 250.146 258.029 260.457 257.957 271.151C258.551 271.443 259.143 271.734 259.731 272.024C269.324 276.749 278.195 281.118 289.22 284.284C296.521 286.381 304.815 287.953 314.826 288.62L314.813 288.608L315.099 288.638C322.823 289.139 331.565 289.102 341.657 288.356C354.189 286.54 364.875 282.19 373.656 275.554C394.539 259.774 400.152 234.466 397.054 213.207C393.225 186.942 370.524 168.086 346.402 163.386C320.722 158.383 292.21 168.813 276.339 200.643L276.29 200.742L276.242 200.841C270.812 212.144 267.796 222.831 266.539 232.884C274.172 235.763 282.266 238.458 295.947 241.984C296.262 233.53 298.37 224.266 303.303 213.967C312.985 194.634 327.912 190.426 340.65 192.907C354.968 195.697 365.679 206.475 367.292 217.546C369.292 231.264 365.267 244.196 355.523 251.56C346.768 258.176 329.758 263.048 299.382 255.252C275.451 249.368 266.067 245.678 253.853 240.858ZM323.632 340.048C306.813 329.517 290.654 312.697 279.774 293.914C281.756 294.595 283.795 295.243 285.9 295.847C297.928 299.301 312.017 301.363 330.387 300.95C333.167 302.759 336.084 304.495 339.123 306.158C359.534 317.326 381.098 323.154 403.876 327.062L393.599 369.857C371.03 363.787 349.225 356.072 323.632 340.048Z" fill="white"/>
</svg>
